<svg xmlns="http://www.w3.org/2000/svg" xmlns:xlink="http://www.w3.org/1999/xlink" width="500" zoomAndPan="magnify" viewBox="0 0 375 374.999991" height="500" preserveAspectRatio="xMidYMid meet" version="1.0"><defs><g/></defs><g fill="#ffffff" fill-opacity="1"><g transform="translate(36.534609, 403.669478)"><g><path d="M 82.59375 -33.140625 C 80.050781 -31.691406 77.875 -32.238281 76.0625 -34.78125 C 75.34375 -35.863281 74.800781 -37.035156 74.4375 -38.296875 C 74.070312 -39.566406 73.707031 -40.925781 73.34375 -42.375 C 71.894531 -52.882812 72.347656 -63.300781 74.703125 -73.625 C 77.054688 -83.945312 80.226562 -94.179688 84.21875 -104.328125 C 88.195312 -114.828125 92.992188 -125.238281 98.609375 -135.5625 C 104.222656 -145.882812 109.390625 -155.753906 114.109375 -165.171875 C 114.460938 -165.898438 114.550781 -166.71875 114.375 -167.625 C 114.195312 -168.53125 114.109375 -169.34375 114.109375 -170.0625 C 113.015625 -170.0625 111.925781 -170.0625 110.84375 -170.0625 C 109.757812 -170.0625 108.851562 -169.703125 108.125 -168.984375 C 90.738281 -155.941406 75.429688 -140.816406 62.203125 -123.609375 C 48.984375 -106.398438 36.035156 -88.921875 23.359375 -71.171875 C 21.910156 -68.640625 20.191406 -66.195312 18.203125 -63.84375 C 16.210938 -61.488281 13.765625 -59.585938 10.859375 -58.140625 C 8.328125 -56.691406 5.429688 -56.328125 2.171875 -57.046875 C -1.085938 -57.773438 -3.441406 -59.40625 -4.890625 -61.9375 C -6.335938 -64.476562 -6.703125 -67.378906 -5.984375 -70.640625 C -5.617188 -84.765625 -4.710938 -98.707031 -3.265625 -112.46875 C -1.816406 -126.238281 2.347656 -139.28125 9.234375 -151.59375 C 13.222656 -159.195312 17.117188 -166.890625 20.921875 -174.671875 C 24.722656 -182.460938 28.976562 -189.984375 33.6875 -197.234375 C 42.019531 -208.828125 49.351562 -219.960938 55.6875 -230.640625 C 62.03125 -241.328125 69.726562 -254.460938 78.78125 -270.046875 C 84.582031 -280.546875 89.65625 -289.144531 94 -295.84375 C 98.34375 -302.550781 102.503906 -308.710938 106.484375 -314.328125 C 110.472656 -319.941406 114.644531 -326.1875 119 -333.0625 C 122.976562 -339.226562 126.78125 -345.390625 130.40625 -351.546875 C 134.03125 -357.703125 137.832031 -363.675781 141.8125 -369.46875 C 143.257812 -371.28125 145.519531 -374.539062 148.59375 -379.25 C 151.675781 -383.957031 155.03125 -388.394531 158.65625 -392.5625 C 162.28125 -396.726562 165.359375 -398.628906 167.890625 -398.265625 C 169.703125 -398.265625 171.695312 -397.179688 173.875 -395.015625 C 175.6875 -393.566406 177.40625 -392.113281 179.03125 -390.65625 C 180.664062 -389.207031 181.84375 -387.398438 182.5625 -385.234375 C 184.007812 -380.878906 183.285156 -376.347656 180.390625 -371.640625 C 177.859375 -368.023438 174.6875 -364.765625 170.875 -361.859375 C 167.070312 -358.960938 163.722656 -355.523438 160.828125 -351.546875 C 157.929688 -347.554688 155.125 -343.390625 152.40625 -339.046875 C 149.6875 -334.703125 146.878906 -330.175781 143.984375 -325.46875 C 141.085938 -320.394531 138.007812 -315.410156 134.75 -310.515625 C 131.488281 -305.628906 128.226562 -300.648438 124.96875 -295.578125 L 80.953125 -226.03125 C 79.140625 -223.5 77.414062 -220.78125 75.78125 -217.875 C 74.15625 -214.976562 72.441406 -212.082031 70.640625 -209.1875 C 69.191406 -206.65625 67.5625 -204.210938 65.75 -201.859375 C 63.9375 -199.503906 62.304688 -197.054688 60.859375 -194.515625 C 57.597656 -188.722656 54.515625 -182.65625 51.609375 -176.3125 C 48.710938 -169.976562 45.457031 -163.910156 41.84375 -158.109375 C 41.113281 -156.660156 39.023438 -153.488281 35.578125 -148.59375 C 32.140625 -143.707031 29.242188 -138.726562 26.890625 -133.65625 C 24.535156 -128.59375 24.265625 -125.332031 26.078125 -123.875 C 27.890625 -122.789062 30.332031 -124.0625 33.40625 -127.6875 C 36.488281 -131.3125 39.476562 -135.382812 42.375 -139.90625 C 45.28125 -144.4375 47.273438 -147.066406 48.359375 -147.796875 C 59.585938 -159.378906 71.175781 -170.695312 83.125 -181.75 C 95.082031 -192.800781 107.398438 -203.394531 120.078125 -213.53125 C 125.148438 -217.519531 130.671875 -218.878906 136.640625 -217.609375 C 142.617188 -216.335938 147.960938 -213.710938 152.671875 -209.734375 C 155.578125 -207.191406 157.390625 -205.195312 158.109375 -203.75 C 158.835938 -202.300781 158.835938 -199.765625 158.109375 -196.140625 C 157.742188 -194.691406 157.289062 -193.332031 156.75 -192.0625 C 156.207031 -190.800781 155.578125 -189.445312 154.859375 -188 C 151.597656 -181.113281 148.425781 -173.867188 145.34375 -166.265625 C 142.257812 -158.660156 138.363281 -151.597656 133.65625 -145.078125 C 128.59375 -137.828125 123.882812 -130.398438 119.53125 -122.796875 C 115.1875 -115.191406 111.382812 -107.222656 108.125 -98.890625 C 104.144531 -88.742188 100.429688 -78.414062 96.984375 -67.90625 C 93.546875 -57.40625 89.65625 -47.085938 85.3125 -36.953125 C 84.945312 -36.585938 84.582031 -36.039062 84.21875 -35.3125 C 83.851562 -34.59375 83.3125 -33.867188 82.59375 -33.140625 Z M 82.59375 -33.140625 "/></g></g></g><g fill="#ffffff" fill-opacity="1"><g transform="translate(192.473497, 403.669478)"><g><path d="M 0 -34.78125 C -9.050781 -37.675781 -14.753906 -43.921875 -17.109375 -53.515625 C -19.460938 -63.117188 -18.46875 -71.539062 -14.125 -78.78125 C -11.226562 -83.132812 -7.695312 -86.847656 -3.53125 -89.921875 C 0.632812 -93.003906 4.890625 -95.8125 9.234375 -98.34375 C 14.671875 -101.601562 20.375 -104.5 26.34375 -107.03125 C 32.320312 -109.570312 38.03125 -112.289062 43.46875 -115.1875 C 47.445312 -117.363281 49.523438 -118.722656 49.703125 -119.265625 C 49.890625 -119.804688 48.71875 -121.890625 46.1875 -125.515625 C 44.738281 -127.328125 43.378906 -129.226562 42.109375 -131.21875 C 40.835938 -133.207031 39.476562 -134.925781 38.03125 -136.375 C 32.238281 -144.34375 28.707031 -152.671875 27.4375 -161.359375 C 26.164062 -170.054688 29.515625 -178.03125 37.484375 -185.28125 C 44.734375 -191.800781 53.066406 -197.414062 62.484375 -202.125 C 71.898438 -206.832031 81.316406 -210.453125 90.734375 -212.984375 C 93.628906 -213.710938 96.34375 -214.257812 98.875 -214.625 C 101.414062 -214.988281 103.957031 -214.988281 106.5 -214.625 C 112.289062 -213.894531 116.632812 -211.359375 119.53125 -207.015625 C 122.425781 -203.390625 123.148438 -198.769531 121.703125 -193.15625 C 120.253906 -187.539062 118.625 -182.742188 116.8125 -178.765625 C 115.363281 -175.503906 112.375 -173.238281 107.84375 -171.96875 C 103.320312 -170.695312 99.429688 -170.96875 96.171875 -172.78125 C 95.441406 -173.144531 95.164062 -173.867188 95.34375 -174.953125 C 95.53125 -176.046875 95.804688 -176.953125 96.171875 -177.671875 C 99.066406 -182.742188 99.972656 -188.359375 98.890625 -194.515625 C 98.890625 -195.242188 98.523438 -195.96875 97.796875 -196.6875 L 95.625 -196.6875 C 93.09375 -196.320312 90.738281 -195.957031 88.5625 -195.59375 C 86.394531 -195.238281 84.039062 -194.519531 81.5 -193.4375 C 75.707031 -190.894531 69.367188 -187.722656 62.484375 -183.921875 C 55.597656 -180.117188 52.335938 -174.050781 52.703125 -165.71875 C 53.066406 -161.007812 54.785156 -156.390625 57.859375 -151.859375 C 60.941406 -147.335938 63.570312 -143.082031 65.75 -139.09375 C 66.832031 -136.925781 68.1875 -134.660156 69.8125 -132.296875 C 71.445312 -129.941406 73.53125 -128.585938 76.0625 -128.234375 C 78.238281 -128.234375 80.773438 -128.957031 83.671875 -130.40625 C 90.554688 -133.664062 97.257812 -137.101562 103.78125 -140.71875 C 110.300781 -144.34375 116.457031 -148.148438 122.25 -152.140625 C 125.144531 -154.304688 127.769531 -156.476562 130.125 -158.65625 C 132.476562 -160.832031 134.925781 -163.003906 137.46875 -165.171875 C 138.550781 -166.265625 140.722656 -167.804688 143.984375 -169.796875 C 147.242188 -171.785156 149.597656 -172.238281 151.046875 -171.15625 C 155.035156 -168.976562 156.578125 -166.164062 155.671875 -162.71875 C 154.765625 -159.28125 152.585938 -155.660156 149.140625 -151.859375 C 145.703125 -148.054688 142.171875 -144.707031 138.546875 -141.8125 C 134.929688 -138.914062 132.21875 -136.925781 130.40625 -135.84375 C 124.601562 -131.851562 117.898438 -127.863281 110.296875 -123.875 C 102.691406 -119.894531 96.171875 -115.367188 90.734375 -110.296875 C 84.578125 -104.503906 80.226562 -96.894531 77.6875 -87.46875 C 75.15625 -78.050781 70.992188 -69.90625 65.203125 -63.03125 C 60.859375 -57.226562 54.972656 -51.789062 47.546875 -46.71875 C 40.117188 -41.65625 32.238281 -37.851562 23.90625 -35.3125 C 15.570312 -32.78125 7.601562 -32.601562 0 -34.78125 Z M 25.53125 -56.5 L 44.015625 -70.640625 C 44.734375 -70.992188 45.90625 -71.894531 47.53125 -73.34375 C 49.164062 -74.800781 50.707031 -76.253906 52.15625 -77.703125 C 52.882812 -78.785156 54.332031 -80.6875 56.5 -83.40625 C 58.675781 -86.125 60.488281 -88.929688 61.9375 -91.828125 C 63.382812 -94.722656 63.566406 -96.710938 62.484375 -97.796875 C 61.398438 -99.242188 58.773438 -99.148438 54.609375 -97.515625 C 50.441406 -95.890625 46.179688 -93.988281 41.828125 -91.8125 C 37.484375 -89.644531 34.769531 -88.203125 33.6875 -87.484375 C 29.695312 -85.671875 25.707031 -83.585938 21.71875 -81.234375 C 17.738281 -78.878906 13.757812 -76.429688 9.78125 -73.890625 C 5.070312 -70.992188 3.171875 -67.367188 4.078125 -63.015625 C 4.984375 -58.671875 7.519531 -55.59375 11.6875 -53.78125 C 15.851562 -51.976562 20.46875 -52.882812 25.53125 -56.5 Z M 25.53125 -56.5 "/></g></g></g><g fill="#ffffff" fill-opacity="1"><g transform="translate(308.748552, 403.669478)"><g><path d="M 26.625 -63.578125 C 23.726562 -61.035156 20.554688 -60.578125 17.109375 -62.203125 C 13.671875 -63.835938 9.960938 -66.648438 5.984375 -70.640625 C 3.804688 -72.441406 2.265625 -74.882812 1.359375 -77.96875 C 0.453125 -81.050781 0 -84.039062 0 -86.9375 C 0.726562 -94.539062 3.535156 -98.796875 8.421875 -99.703125 C 13.304688 -100.609375 18.46875 -99.519531 23.90625 -96.4375 C 29.34375 -93.363281 32.96875 -89.109375 34.78125 -83.671875 C 35.5 -78.960938 35.132812 -75.160156 33.6875 -72.265625 C 32.238281 -69.367188 29.882812 -66.472656 26.625 -63.578125 Z M 26.625 -63.578125 "/></g></g></g></svg>