<svg xmlns="http://www.w3.org/2000/svg" xmlns:xlink="http://www.w3.org/1999/xlink" width="50" zoomAndPan="magnify" viewBox="0 0 37.5 37.499999" height="50" preserveAspectRatio="xMidYMid meet" version="1.0"><defs><clipPath id="6482ea2a4c"><path d="M 0 0 L 37.007812 0 L 37.007812 37.007812 L 0 37.007812 Z M 0 0 " clip-rule="nonzero"/></clipPath></defs><g clip-path="url(#6482ea2a4c)"><path fill="#ffffff" d="M 18.503906 0 C 8.28125 0 0 8.28125 0 18.503906 C 0 28.726562 8.28125 37.007812 18.503906 37.007812 C 28.726562 37.007812 37.007812 28.726562 37.007812 18.503906 C 37.007812 8.28125 28.726562 0 18.503906 0 Z M 18.503906 33.304688 C 10.324219 33.304688 3.699219 26.683594 3.699219 18.503906 C 3.699219 10.324219 10.324219 3.699219 18.503906 3.699219 C 26.683594 3.699219 33.304688 10.324219 33.304688 18.503906 C 33.304688 26.683594 26.683594 33.304688 18.503906 33.304688 Z M 18.503906 33.304688 " fill-opacity="1" fill-rule="nonzero"/></g></svg>