<svg xmlns="http://www.w3.org/2000/svg" xmlns:xlink="http://www.w3.org/1999/xlink" width="50" zoomAndPan="magnify" viewBox="0 0 37.5 37.499999" height="50" preserveAspectRatio="xMidYMid meet" version="1.0"><defs><clipPath id="cbd0a5945d"><path d="M 0 0 L 37.007812 0 L 37.007812 37.007812 L 0 37.007812 Z M 0 0 " clip-rule="nonzero"/></clipPath><clipPath id="9fc50bf69a"><path d="M 11.101562 11.101562 L 12.582031 11.101562 L 12.582031 12.582031 L 11.101562 12.582031 Z M 11.101562 11.101562 " clip-rule="nonzero"/></clipPath></defs><g clip-path="url(#cbd0a5945d)"><path fill="#fdfdfd" d="M 37.007812 18.503906 C 37.007812 19.109375 36.976562 19.714844 36.917969 20.316406 C 36.859375 20.917969 36.769531 21.519531 36.652344 22.113281 C 36.53125 22.707031 36.386719 23.292969 36.210938 23.875 C 36.035156 24.453125 35.828125 25.023438 35.597656 25.582031 C 35.367188 26.144531 35.105469 26.691406 34.820312 27.226562 C 34.535156 27.757812 34.222656 28.277344 33.886719 28.78125 C 33.550781 29.285156 33.191406 29.773438 32.804688 30.242188 C 32.421875 30.710938 32.015625 31.15625 31.585938 31.585938 C 31.15625 32.015625 30.710938 32.421875 30.242188 32.804688 C 29.773438 33.191406 29.285156 33.550781 28.78125 33.886719 C 28.277344 34.222656 27.757812 34.535156 27.226562 34.820312 C 26.691406 35.105469 26.144531 35.367188 25.582031 35.597656 C 25.023438 35.828125 24.453125 36.035156 23.875 36.210938 C 23.292969 36.386719 22.707031 36.53125 22.113281 36.652344 C 21.519531 36.769531 20.917969 36.859375 20.316406 36.917969 C 19.714844 36.976562 19.109375 37.007812 18.503906 37.007812 C 17.898438 37.007812 17.292969 36.976562 16.6875 36.917969 C 16.085938 36.859375 15.488281 36.769531 14.894531 36.652344 C 14.300781 36.53125 13.710938 36.386719 13.132812 36.210938 C 12.550781 36.035156 11.980469 35.828125 11.421875 35.597656 C 10.863281 35.367188 10.316406 35.105469 9.78125 34.820312 C 9.246094 34.535156 8.726562 34.222656 8.222656 33.886719 C 7.71875 33.550781 7.234375 33.191406 6.765625 32.804688 C 6.296875 32.421875 5.847656 32.015625 5.417969 31.585938 C 4.992188 31.15625 4.585938 30.710938 4.199219 30.242188 C 3.816406 29.773438 3.453125 29.285156 3.117188 28.78125 C 2.78125 28.277344 2.46875 27.757812 2.183594 27.226562 C 1.898438 26.691406 1.640625 26.144531 1.410156 25.582031 C 1.175781 25.023438 0.972656 24.453125 0.796875 23.875 C 0.621094 23.292969 0.472656 22.707031 0.355469 22.113281 C 0.238281 21.519531 0.148438 20.917969 0.0898438 20.316406 C 0.03125 19.714844 0 19.109375 0 18.503906 C 0 17.898438 0.03125 17.292969 0.0898438 16.6875 C 0.148438 16.085938 0.238281 15.488281 0.355469 14.894531 C 0.472656 14.300781 0.621094 13.710938 0.796875 13.132812 C 0.972656 12.550781 1.175781 11.980469 1.410156 11.421875 C 1.640625 10.863281 1.898438 10.316406 2.183594 9.78125 C 2.46875 9.246094 2.78125 8.726562 3.117188 8.222656 C 3.453125 7.71875 3.816406 7.234375 4.199219 6.765625 C 4.585938 6.296875 4.992188 5.847656 5.417969 5.417969 C 5.847656 4.992188 6.296875 4.585938 6.765625 4.199219 C 7.234375 3.816406 7.71875 3.453125 8.222656 3.117188 C 8.726562 2.78125 9.246094 2.46875 9.78125 2.183594 C 10.316406 1.898438 10.863281 1.640625 11.421875 1.410156 C 11.980469 1.175781 12.550781 0.972656 13.132812 0.796875 C 13.710938 0.621094 14.300781 0.472656 14.894531 0.355469 C 15.488281 0.238281 16.085938 0.148438 16.6875 0.0898438 C 17.292969 0.03125 17.898438 0 18.503906 0 C 19.109375 0 19.714844 0.03125 20.316406 0.0898438 C 20.917969 0.148438 21.519531 0.238281 22.113281 0.355469 C 22.707031 0.472656 23.292969 0.621094 23.875 0.796875 C 24.453125 0.972656 25.023438 1.175781 25.582031 1.410156 C 26.144531 1.640625 26.691406 1.898438 27.226562 2.183594 C 27.757812 2.46875 28.277344 2.78125 28.78125 3.117188 C 29.285156 3.453125 29.773438 3.816406 30.242188 4.199219 C 30.710938 4.585938 31.15625 4.992188 31.585938 5.417969 C 32.015625 5.847656 32.421875 6.296875 32.804688 6.765625 C 33.191406 7.234375 33.550781 7.71875 33.886719 8.222656 C 34.222656 8.726562 34.535156 9.246094 34.820312 9.78125 C 35.105469 10.316406 35.367188 10.863281 35.597656 11.421875 C 35.828125 11.980469 36.035156 12.550781 36.210938 13.132812 C 36.386719 13.710938 36.53125 14.300781 36.652344 14.894531 C 36.769531 15.488281 36.859375 16.085938 36.917969 16.6875 C 36.976562 17.292969 37.007812 17.898438 37.007812 18.503906 Z M 37.007812 18.503906 " fill-opacity="1" fill-rule="nonzero"/></g><g clip-path="url(#9fc50bf69a)"><path fill="#fdfdfd" d="M 11.691406 11.101562 C 11.855469 11.101562 12.003906 11.167969 12.109375 11.273438 C 12.214844 11.382812 12.28125 11.527344 12.28125 11.691406 C 12.28125 11.855469 12.214844 12.003906 12.109375 12.109375 C 12.003906 12.214844 11.855469 12.28125 11.691406 12.28125 C 11.527344 12.28125 11.382812 12.214844 11.273438 12.109375 C 11.167969 12.003906 11.101562 11.855469 11.101562 11.691406 C 11.101562 11.527344 11.167969 11.382812 11.273438 11.273438 C 11.382812 11.167969 11.527344 11.101562 11.691406 11.101562 Z M 12.0625 11.320312 C 11.96875 11.226562 11.835938 11.167969 11.691406 11.167969 C 11.546875 11.167969 11.414062 11.226562 11.320312 11.320312 C 11.226562 11.414062 11.167969 11.546875 11.167969 11.691406 C 11.167969 11.835938 11.226562 11.96875 11.320312 12.0625 C 11.414062 12.15625 11.546875 12.214844 11.691406 12.214844 C 11.835938 12.214844 11.96875 12.15625 12.0625 12.0625 C 12.15625 11.96875 12.214844 11.835938 12.214844 11.691406 C 12.214844 11.546875 12.15625 11.414062 12.0625 11.320312 " fill-opacity="1" fill-rule="nonzero"/></g></svg>